<?xml version="1.0" encoding="UTF-8"?><svg id="Layer_2" xmlns="http://www.w3.org/2000/svg" viewBox="0 0 623.28 623.28"><g id="Layer_1-2"><rect width="623.28" height="623.28" rx="103.88" ry="103.88" style="fill:#fff;"/><rect x="509.08" y="389.38" width="59.16" height="34.4"/><rect x="509.08" y="294.44" width="59.16" height="34.4"/><rect x="509.08" y="199.51" width="59.16" height="34.4"/><rect x="55.04" y="389.38" width="59.16" height="34.4"/><rect x="55.04" y="294.44" width="59.16" height="34.4"/><rect x="55.04" y="199.51" width="59.16" height="34.4"/><rect x="199.51" y="509.08" width="34.4" height="59.16"/><rect x="294.44" y="509.08" width="34.4" height="59.16"/><rect x="389.38" y="509.08" width="34.4" height="59.16"/><rect x="199.51" y="55.04" width="34.4" height="59.16"/><rect x="294.44" y="55.04" width="34.4" height="59.16"/><rect x="389.38" y="55.04" width="34.4" height="59.16"/><rect x="167.86" y="169.24" width="286.19" height="284.81" rx="47.47" ry="47.47"/><rect x="195.38" y="235.28" width="46.78" height="45.4" style="fill:#fff;"/><rect x="195.38" y="342.6" width="46.78" height="45.4" style="fill:#fff;"/><path d="m353.61,287.56c40.27,0,72.92,21.87,72.92,48.84s-32.65,48.84-72.92,48.84c13.98-31.89,13.98-65.8,0-97.69Z" style="fill:#fff; fill-rule:evenodd;"/><rect x="233.9" y="360.49" width="130.71" height="9.63" style="fill:#fff;"/><rect x="294.44" y="301.32" width="70.17" height="9.63" style="fill:#fff;"/><rect x="233.9" y="253.17" width="60.54" height="9.63" style="fill:#fff;"/><rect x="290.32" y="253.17" width="9.63" height="57.79" style="fill:#fff;"/></g></svg>